<svg width="9" height="12" viewBox="0 0 9 12" fill="none" xmlns="http://www.w3.org/2000/svg">
<path d="M8.10674 6.09432C8.02258 5.93832 7.86255 5.84107 7.68849 5.84107L4.97819 5.84107L4.97819 0.489529C4.97819 0.219309 4.76397 -6.55101e-07 4.50002 -6.78177e-07C4.23607 -7.01252e-07 4.02184 0.219309 4.02184 0.489529L4.02184 5.84107L1.31154 5.84107C1.13685 5.84107 0.976821 5.93832 0.8933 6.09432C0.808504 6.25031 0.814242 6.4409 0.906689 6.59168L4.09516 11.7716C4.18315 11.9138 4.33553 12 4.50002 12C4.66451 12 4.81689 11.9138 4.90487 11.7716L8.09335 6.59168C8.1418 6.51205 8.16667 6.42132 8.16667 6.3306C8.16667 6.24966 8.14627 6.16807 8.10674 6.09432" fill="#FA2256"/>
</svg>

