<svg width="8" height="12" viewBox="0 0 8 12" fill="none" xmlns="http://www.w3.org/2000/svg">
<path d="M0.393267 5.90568C0.477426 6.06168 0.637455 6.15893 0.811511 6.15893H3.52181V11.5105C3.52181 11.7807 3.73603 12 3.99999 12C4.26394 12 4.47816 11.7807 4.47816 11.5105V6.15893H7.18846C7.36315 6.15893 7.52318 6.06168 7.6067 5.90568C7.6915 5.74969 7.68576 5.5591 7.59332 5.40832L4.40484 0.228447C4.31686 0.0861572 4.16448 0 3.99999 0C3.83549 0 3.68311 0.0861572 3.59513 0.228447L0.406656 5.40832C0.358201 5.48795 0.333336 5.57868 0.333336 5.6694C0.333336 5.75034 0.353738 5.83193 0.393267 5.90568" fill="#11CABE"/>
</svg>
