<svg width="11" height="8" viewBox="0 0 11 8" fill="none" xmlns="http://www.w3.org/2000/svg">
<mask id="mask0_1_407" style="mask-type:alpha" maskUnits="userSpaceOnUse" x="0" y="0" width="11" height="8">
<path fill-rule="evenodd" clip-rule="evenodd" d="M0.947266 0.265686H10.0509V7.73433H0.947266V0.265686Z" fill="white"/>
</mask>
<g mask="url(#mask0_1_407)">
<path d="M10.0511 0.859309C10.0511 0.970118 10.0202 1.07934 9.96008 1.17591L6.00181 7.45723C5.89258 7.62977 5.70341 7.73504 5.49921 7.73504C5.295 7.73504 5.10583 7.62977 4.99661 7.45723L1.03833 1.17591C0.923563 0.993072 0.91644 0.761955 1.02171 0.572787C1.12619 0.382828 1.32485 0.265686 1.54093 0.265686H9.45748C9.67356 0.265686 9.87223 0.382828 9.97671 0.572787C10.0266 0.662226 10.0511 0.761163 10.0511 0.859309Z" fill="#3C4254"/>
</g>
</svg>
