<svg width="25" height="24" viewBox="0 0 25 24" fill="none" xmlns="http://www.w3.org/2000/svg">
<path opacity="0.4" d="M17.8316 5.11485H14.8885C14.1553 5.11969 13.4592 4.79355 12.9946 4.22751L12.0255 2.88762C11.5686 2.31661 10.8726 1.98894 10.1405 2.00028H8.05987C4.32545 2.00028 2.94728 4.19201 2.94728 7.91884V11.9474C2.94263 12.3904 22.9429 12.3898 22.9442 11.9474V10.7761C22.962 7.04924 21.6194 5.11485 17.8316 5.11485Z" fill="#246CF9"/>
<path fill-rule="evenodd" clip-rule="evenodd" d="M21.7794 6.54347C22.0993 6.91755 22.3466 7.34787 22.5085 7.81237C22.8271 8.76705 22.9746 9.7703 22.9442 10.7761V16.0291C22.9429 16.4716 22.9102 16.9134 22.8464 17.3513C22.7248 18.124 22.4529 18.8655 22.0461 19.5341C21.8592 19.8571 21.6321 20.1552 21.3704 20.4215C20.1856 21.5089 18.6122 22.0749 17.0047 21.992H8.87788C7.26776 22.0743 5.69188 21.5085 4.50327 20.4215C4.24467 20.1547 4.02063 19.8566 3.83641 19.5341C3.43202 18.866 3.16595 18.1238 3.05396 17.3513C2.98275 16.9141 2.94707 16.472 2.94727 16.0291V10.7761C2.94709 10.3374 2.97084 9.89896 3.0184 9.46282C3.0284 9.3863 3.0434 9.31103 3.05825 9.23653C3.083 9.11234 3.10731 8.99032 3.10731 8.8683C3.19757 8.34198 3.36222 7.8311 3.59634 7.35095C4.28988 5.8691 5.71251 5.11486 8.04208 5.11486H17.8227C19.1275 5.01395 20.4226 5.40674 21.4504 6.21516C21.5688 6.31554 21.6788 6.42534 21.7794 6.54347ZM7.9176 15.5411H17.9827H18.0005C18.2214 15.5507 18.4369 15.4716 18.5989 15.3216C18.761 15.1715 18.8561 14.963 18.863 14.7425C18.8755 14.5487 18.8117 14.3577 18.6852 14.2101C18.5396 14.0118 18.309 13.8934 18.0628 13.8906H7.9176C7.46091 13.8906 7.09069 14.2601 7.09069 14.7159C7.09069 15.1716 7.46091 15.5411 7.9176 15.5411Z" fill="#246CF9"/>
</svg>
