<svg width="21" height="24" viewBox="0 0 21 24" fill="none" xmlns="http://www.w3.org/2000/svg">
<path d="M5.2228 8.63959L0 5.73307L8.86482 0.434296C9.83638 -0.146436 11.0537 -0.14464 12.0235 0.438958L19.5366 4.96009C20.4453 5.50693 21 6.48303 21 7.53531V15.7356C21 16.8076 20.4245 17.799 19.4885 18.3391L12.068 22.6217C11.1309 23.1625 9.97384 23.1695 9.03013 22.6401L0 17.5745V11.6538L10.4456 17.5745L15.6684 14.5603V8.63959L10.4456 5.73307L5.2228 8.63959Z" fill="white"/>
<path d="M5.22388 14.6132V8.63956L10.4467 5.73303L15.6695 8.63956V14.5603L10.4467 17.5744L5.22388 14.6132Z" fill="#5816BE"/>
<path d="M5.22388 8.63953L10.4467 11.6537V17.5744L5.22388 14.6103V8.63953Z" fill="#360F80"/>
<path d="M10.4467 11.6537L15.6695 8.63956L10.4467 5.73303L5.22388 8.63956L10.4467 11.6537Z" fill="#3A3047"/>
</svg>
