<svg width="24" height="24" viewBox="0 0 24 24" fill="none" xmlns="http://www.w3.org/2000/svg">
<g clip-path="url(#clip0_1_346)">
<path d="M12.0002 15.9189L8.08139 12L12.0002 8.08114V0L0.808246 11.192C0.593993 11.4063 0.473633 11.697 0.473633 12C0.473633 12.303 0.593993 12.5937 0.808246 12.808L12.0002 24C12.0002 24 13.7145 22.8571 13.7145 20C13.6259 18.4838 13.0209 17.0436 12.0002 15.9189Z" fill="#2684FF"/>
<path d="M8.69361 11.2383L8.76846 11.3131L12.0005 8.08114V0L5.94275 6.05714C6.39823 7.99226 7.34578 9.77694 8.69361 11.2383Z" fill="#1D78F2"/>
<path d="M9.52067 10.4486L9.57782 10.5057L12.0018 8.08171V0L6.93439 5.06629C7.25213 7.07452 8.15126 8.94568 9.52067 10.4486Z" fill="#126AE5"/>
<path d="M12.0005 8.08114V0L8.00055 4C8.08812 6.12298 8.93373 8.14425 10.384 9.69714L12.0005 8.08114Z" fill="#0B60DA"/>
<path d="M9.14271 4C9.14271 6.712 11.0896 8.78343 11.1913 8.88914L11.9999 8.08114V0L9.24442 2.75543C9.17608 3.16675 9.14205 3.58304 9.14271 4Z" fill="#0154CE"/>
<path d="M12.0001 8.08114L15.9184 12L12.0001 15.9189V24L23.1915 12.808C23.4058 12.5937 23.5262 12.303 23.5262 12C23.5262 11.697 23.4058 11.4063 23.1915 11.192L12.0001 0C12.0001 0 10.2858 1.14286 10.2858 4C10.3745 5.51621 10.9795 6.95641 12.0001 8.08114Z" fill="#2482FD"/>
<path d="M15.3068 12.7617L15.232 12.6869L12.0005 15.9189V24L18.0577 17.9429C17.6022 16.0078 16.6547 14.2231 15.3068 12.7617Z" fill="#1D78F2"/>
<path d="M14.4798 13.5515L14.4227 13.4943L11.9993 15.9183V24L17.0656 18.9338C16.7478 16.9256 15.8489 15.0545 14.4798 13.5515Z" fill="#126AE5"/>
<path d="M12.0005 15.9189V24L16.0005 20C15.9129 17.8769 15.067 15.8556 13.6165 14.3029L12.0005 15.9189Z" fill="#0B60DA"/>
<path d="M14.8577 20C14.8577 17.288 12.9108 15.2166 12.8085 15.1109L12.0005 15.9189V24L14.756 21.2446C14.824 20.8332 14.8581 20.417 14.8577 20Z" fill="#0154CE"/>
<path d="M12 15.9189L8.08115 12H1.71429V13.7143L12 24C12 24 13.7143 22.8571 13.7143 20C13.6256 18.4838 13.0207 17.0436 12 15.9189Z" fill="#2684FF"/>
</g>
<defs>
<clipPath id="clip0_1_346">
<rect width="24" height="24" fill="white"/>
</clipPath>
</defs>
</svg>
