<svg width="27" height="12" viewBox="0 0 27 12" fill="none" xmlns="http://www.w3.org/2000/svg">
<path d="M2.84801 11.2448C4.04119 11.2448 5.01065 10.2753 5.01562 9.08714V7.93373H7.0142V9.08714C7.00923 10.2753 7.97869 11.2448 9.17188 11.2448C10.3601 11.2448 11.3295 10.2753 11.3295 9.08714C11.3295 7.89395 10.3601 6.92449 9.17188 6.91952H8.02841V4.92094H9.17188C10.3601 4.92591 11.3295 3.95645 11.3295 2.76327C11.3295 1.57506 10.3601 0.605601 9.17188 0.605601C7.97869 0.605601 7.00923 1.57506 7.0142 2.76327V3.90674H5.01562V2.76327C5.01065 1.57506 4.04119 0.605601 2.84801 0.605601C1.6598 0.605601 0.690341 1.57506 0.690341 2.76327C0.690341 3.95645 1.6598 4.92591 2.84801 4.92094H4.00142V6.91952H2.84801C1.6598 6.92449 0.690341 7.89395 0.690341 9.08714C0.690341 10.2753 1.6598 11.2448 2.84801 11.2448ZM2.84801 10.2306C2.21662 10.2306 1.70455 9.71853 1.70455 9.08714C1.70455 8.45077 2.21662 7.9387 2.84801 7.93373H4.00142V9.08714C3.99645 9.71853 3.48438 10.2306 2.84801 10.2306ZM2.84801 3.90674C2.21662 3.91171 1.70455 3.39964 1.70455 2.76327C1.70455 2.13188 2.21662 1.61981 2.84801 1.61981C3.48438 1.61981 3.99645 2.13188 4.00142 2.76327V3.90674H2.84801ZM9.17188 10.2306C8.53551 10.2306 8.02344 9.71853 8.02841 9.08714V7.93373H9.17188C9.80327 7.9387 10.3153 8.45077 10.3153 9.08714C10.3153 9.71853 9.80327 10.2306 9.17188 10.2306ZM8.02841 3.90674V2.76327C8.02344 2.13188 8.53551 1.61981 9.17188 1.61981C9.80327 1.61981 10.3153 2.13188 10.3153 2.76327C10.3153 3.39964 9.80327 3.91171 9.17188 3.90674H8.02841ZM5.01562 6.91952V4.92094H7.0142V6.91952H5.01562ZM18.1841 11.0161H19.4171V6.46214H24.8461V11.0161H26.079V0.834295H24.8461V5.36839H19.4171V0.834295H18.1841V11.0161Z" fill="#757B8C"/>
</svg>
