<svg width="16" height="16" viewBox="0 0 16 16" fill="none" xmlns="http://www.w3.org/2000/svg">
<path opacity="0.4" d="M8.65088 2.07576L10.1352 5.05861C10.2446 5.27472 10.4533 5.4248 10.694 5.45815L14.028 5.94373C14.2227 5.97108 14.3994 6.0738 14.5188 6.23054C14.6368 6.38529 14.6875 6.58139 14.6588 6.77415C14.6355 6.93423 14.5601 7.08231 14.4448 7.1957L12.0289 9.53756C11.8522 9.70097 11.7722 9.9431 11.8149 10.1799L12.4097 13.4722C12.473 13.8698 12.2096 14.2446 11.8149 14.32C11.6522 14.346 11.4855 14.3187 11.3388 14.2439L8.36482 12.6945C8.1441 12.5831 7.88338 12.5831 7.66267 12.6945L4.68869 14.2439C4.32328 14.438 3.87052 14.306 3.66714 13.9458C3.59179 13.8024 3.56512 13.639 3.58979 13.4796L4.18459 10.1866C4.22726 9.95043 4.14658 9.70698 3.97054 9.54356L1.55469 7.20304C1.26729 6.92556 1.25862 6.46866 1.53535 6.18118C1.54135 6.17518 1.54802 6.16851 1.55469 6.16184C1.66938 6.04511 1.82008 5.97108 1.98278 5.95173L5.31683 5.46549C5.55688 5.43147 5.76559 5.28273 5.87562 5.06528L7.30659 2.07576C7.43395 1.81963 7.69801 1.66022 7.98474 1.66689H8.07409C8.32281 1.6969 8.53952 1.85098 8.65088 2.07576Z" fill="#FFB545"/>
<path d="M7.99468 12.6114C7.86555 12.6154 7.73975 12.6501 7.62659 12.7122L4.66716 14.2581C4.30505 14.4309 3.87172 14.2968 3.6687 13.9505C3.59348 13.8091 3.56619 13.6469 3.59149 13.4881L4.18257 10.2021C4.22251 9.96326 4.14263 9.72039 3.9689 9.55226L1.55197 7.21234C1.26508 6.93144 1.25975 6.4704 1.54065 6.18283C1.54465 6.17882 1.54797 6.17549 1.55197 6.17215C1.66646 6.05873 1.81423 5.984 1.97332 5.96064L5.31016 5.46958C5.55179 5.43888 5.76147 5.28809 5.86797 5.06925L7.3184 2.0421C7.45618 1.7979 7.72044 1.65245 8.00001 1.66779C7.99468 1.86595 7.99468 12.4767 7.99468 12.6114Z" fill="#FFB545"/>
</svg>
