<svg width="159" height="79" viewBox="0 0 159 79" fill="none" xmlns="http://www.w3.org/2000/svg">
<path fill-rule="evenodd" clip-rule="evenodd" d="M79.6364 2.00006C79.7891 2.00006 79.9419 2.00052 80.0946 2.00142L80.1065 0.00145972C79.9498 0.000527382 79.7931 6.10352e-05 79.6364 6.10352e-05C79.4797 6.10352e-05 79.3229 0.000527382 79.1663 0.00145972L79.1782 2.00142C79.3309 2.00052 79.4836 2.00006 79.6364 2.00006ZM69.1318 2.71996C69.4344 2.67829 69.7372 2.63842 70.0403 2.60036L69.791 0.615948C69.4801 0.655005 69.1694 0.695909 68.859 0.738655L69.1318 2.71996ZM89.2325 2.60036C89.5356 2.63843 89.8384 2.67829 90.141 2.71996L90.4138 0.738656C90.1034 0.69591 89.7927 0.655007 89.4818 0.615949L89.2325 2.60036ZM59.2652 4.74366C59.5597 4.66284 59.8548 4.58379 60.1502 4.50651L59.6441 2.57161C59.341 2.6509 59.0383 2.73201 58.736 2.81492L59.2652 4.74366ZM99.1226 4.50651C99.418 4.5838 99.713 4.66285 100.008 4.74366L100.537 2.81492C100.235 2.73201 99.9318 2.6509 99.6287 2.57161L99.1226 4.50651ZM50.1698 7.86134C50.3109 7.80288 50.4522 7.74485 50.5936 7.68724L49.8393 5.83496C49.6942 5.89406 49.5492 5.9536 49.4044 6.01358C49.2596 6.07355 49.115 6.13396 48.9706 6.19478L49.7469 8.03795C49.8877 7.97867 50.0286 7.9198 50.1698 7.86134ZM108.679 7.68725C108.821 7.74485 108.962 7.80288 109.103 7.86134C109.244 7.9198 109.385 7.97867 109.526 8.03795L110.302 6.19478C110.158 6.13396 110.013 6.07356 109.868 6.01358C109.724 5.9536 109.579 5.89406 109.434 5.83497L108.679 7.68725ZM40.7403 12.5464C41.0039 12.3921 41.2684 12.2394 41.5338 12.0882L40.5441 10.3502C40.2718 10.5053 40.0004 10.662 39.73 10.8203L40.7403 12.5464ZM117.739 12.0882C118.004 12.2394 118.269 12.3921 118.532 12.5464L119.543 10.8203C119.272 10.662 119.001 10.5053 118.729 10.3502L117.739 12.0882ZM32.3991 18.1918C32.6404 18.0044 32.8827 17.8185 33.1261 17.634L31.918 16.0401C31.6683 16.2294 31.4197 16.4201 31.1722 16.6124L32.3991 18.1918ZM126.147 17.634C126.39 17.8185 126.632 18.0044 126.874 18.1918L128.101 16.6124C127.853 16.4201 127.604 16.2294 127.355 16.0401L126.147 17.634ZM25.1892 24.5528C25.2972 24.4448 25.4055 24.3371 25.5141 24.2298L24.1084 22.8072C23.9969 22.9173 23.8858 23.0278 23.7749 23.1386C23.6641 23.2495 23.5536 23.3606 23.4435 23.472L24.8661 24.8778C24.9735 24.7692 25.0811 24.6609 25.1892 24.5528ZM18.2704 32.4897C18.4548 32.2463 18.6408 32.004 18.8282 31.7628L17.2487 30.5359C17.0565 30.7833 16.8657 31.032 16.6764 31.2817L18.2704 32.4897ZM140.445 31.7628C140.632 32.004 140.818 32.2464 141.002 32.4897L142.596 31.2817C142.407 31.032 142.216 30.7834 142.024 30.5359L140.445 31.7628ZM12.7245 40.8975C12.8757 40.6321 13.0284 40.3675 13.1827 40.104L11.4566 39.0937C11.2983 39.3641 11.1416 39.6355 10.9866 39.9078L12.7245 40.8975ZM146.09 40.104C146.244 40.3675 146.397 40.6321 146.548 40.8975L148.286 39.9078C148.131 39.6355 147.974 39.3641 147.816 39.0937L146.09 40.104ZM8.49765 49.5334C8.55612 49.3923 8.61499 49.2514 8.67427 49.1106L6.8311 48.3343C6.77028 48.4787 6.70987 48.6233 6.6499 48.7681C6.60994 48.8645 6.57019 48.9611 6.53062 49.0576C6.51079 49.1061 6.49101 49.1545 6.47128 49.2029L8.32356 49.9573C8.38116 49.8159 8.43919 49.6746 8.49765 49.5334ZM150.598 49.1106C150.658 49.2514 150.717 49.3923 150.775 49.5334C150.834 49.6746 150.892 49.8159 150.949 49.9573L152.801 49.2029C152.742 49.0578 152.683 48.9129 152.623 48.7681C152.563 48.6233 152.502 48.4787 152.442 48.3343L150.598 49.1106ZM5.14282 59.5139C5.22012 59.2184 5.29916 58.9234 5.37997 58.6288L3.45125 58.0997C3.36833 58.4019 3.28723 58.7046 3.20793 59.0078L5.14282 59.5139ZM153.893 58.6288C153.974 58.9234 154.053 59.2184 154.13 59.5139L156.065 59.0078C155.986 58.7046 155.904 58.4019 155.822 58.0997L153.893 58.6288ZM3.23668 69.4039C3.27475 69.1009 3.31462 68.798 3.35628 68.4955L1.37498 68.2226C1.33223 68.533 1.29134 68.8437 1.25227 69.1547L3.23668 69.4039ZM155.916 68.4955C155.958 68.798 155.998 69.1009 156.036 69.4039L158.02 69.1547C157.981 68.8437 157.941 68.5331 157.898 68.2226L155.916 68.4955ZM2.63638 79.0001C2.63638 78.8473 2.63684 78.6946 2.63774 78.5418L0.637787 78.5299C0.636856 78.6866 0.636383 78.8433 0.636383 79.0001H2.63638ZM156.635 78.5419C156.636 78.6946 156.636 78.8473 156.636 79.0001H158.636C158.636 78.8433 158.636 78.6866 158.635 78.53L156.635 78.5419Z" fill="#3C4254"/>
</svg>
