<svg width="18" height="18" viewBox="0 0 18 18" fill="none" xmlns="http://www.w3.org/2000/svg">
<path opacity="0.4" d="M14.6485 7.36926C14.2474 7.36926 13.9219 7.68998 13.9219 8.08675C13.9219 10.7666 11.714 12.947 9.00036 12.947C6.28602 12.947 4.07807 10.7666 4.07807 8.08675C4.07807 7.68998 3.75259 7.36926 3.35154 7.36926C2.95049 7.36926 2.625 7.68998 2.625 8.08675C2.625 11.3154 5.09959 13.9809 8.27383 14.3389V15.7825C8.27383 16.1786 8.59859 16.5 9.00036 16.5C9.40141 16.5 9.7269 16.1786 9.7269 15.7825V14.3389C12.9004 13.9809 15.375 11.3154 15.375 8.08675C15.375 7.68998 15.0495 7.36926 14.6485 7.36926Z" fill="#757B8C"/>
<path d="M8.86842 11.4128H9.13142C10.9332 11.4128 12.395 9.96994 12.395 8.19057V4.72295C12.395 2.94215 10.9332 1.5 9.13142 1.5H8.86842C7.06661 1.5 5.60481 2.94215 5.60481 4.72295V8.19057C5.60481 9.96994 7.06661 11.4128 8.86842 11.4128Z" fill="#757B8C"/>
</svg>
